PathFileType	4	(X/Y/Z)	./resultDataOpenSim/trcMotMarkerGrf/sub06/qtm-13-01.trc
DataRate	CameraRate	NumFrames	NumMarkers	Units	OrigDataRate	OrigDataStartFrame	OrigNumFrames
250.000000	250.000000	8	24	m	250.000000	484	553
Frame#	Time	L.Toe.Tip			R.Toe.Tip			L.Ankle.Lat			R.Ankle.Lat			L.Ankle.Med			R.Ankle.Med			L.Heel			R.Heel			L.Knee.Lat			R.Knee.Lat			L.Knee.Med			R.Knee.Med			L.Thigh.Upper			R.Thigh.Upper			L.ASIS			R.ASIS			V.Sacral			L.Acromium			R.Acromium			C7			L.Elbow			R.Elbow			L.Wrist.Lat			R.Wrist.Lat
		X1	Y1	Z1	X2	Y2	Z2	X3	Y3	Z3	X4	Y4	Z4	X5	Y5	Z5	X6	Y6	Z6	X7	Y7	Z7	X8	Y8	Z8	X9	Y9	Z9	X10	Y10	Z10	X11	Y11	Z11	X12	Y12	Z12	X13	Y13	Z13	X14	Y14	Z14	X15	Y15	Z15	X16	Y16	Z16	X17	Y17	Z17	X18	Y18	Z18	X19	Y19	Z19	X20	Y20	Z20	X21	Y21	Z21	X22	Y22	Z22	X23	Y23	Z23	X24	Y24	Z24

484	1.932	1.5395465	0.033604672	-0.096950567	1.4546591	0.073575252	0.12438035	1.4170899	0.077769423	-0.12344463	1.3611276	0.17669784	0.11066321	1.4154145	0.091595205	-0.037208463	1.4129259	0.17244135	0.036635337	1.3407587	0.055303202	-0.080992926	1.3216161	0.1790008	0.035552064	1.5031236	0.44162332	-0.13301465	1.5952862	0.47910759	0.16066068	1.4694868	0.44752486	-0.013754167	1.608599	0.4615074	0.028789071	1.4864646	0.83579613	-0.19851948	1.4604625	0.82203507	0.14512364	1.5542871	0.88693421	-0.149555	1.5409923	0.88835239	0.094667158	1.3551757	0.94988775	-0.033837578	1.4882909	1.3657301	-0.21785311	1.4644066	1.355647	0.14202181	1.3945459	1.3944291	-0.046042154	1.4529442	1.0423308	-0.2769271	1.395389	1.0408922	0.20263529	1.6603197	0.89759571	-0.28477254	1.5500129	0.85122581	0.2201749
485	1.936	1.5395883	0.033586461	-0.097015019	1.4710555	0.072341848	0.12527899	1.4172906	0.078347133	-0.12341984	1.3747464	0.17274272	0.11141407	1.4151994	0.092230678	-0.037094407	1.4271438	0.16976981	0.036925724	1.3409821	0.056213927	-0.080874276	1.3348939	0.17367759	0.036406319	1.5040921	0.44196165	-0.13328701	1.6026591	0.48061694	0.16022578	1.4712737	0.44798011	-0.013779042	1.61532	0.46354929	0.028470277	1.4898666	0.8361228	-0.19841946	1.4659925	0.82314873	0.14540084	1.5579288	0.88731457	-0.14989435	1.5459592	0.88917046	0.094314461	1.3599038	0.95042695	-0.032939406	1.4926786	1.3664076	-0.2177574	1.4688414	1.3560395	0.14212123	1.3989666	1.3949465	-0.045989365	1.460406	1.0424681	-0.27752279	1.3969952	1.0422002	0.20274872	1.6713068	0.90243036	-0.2830063	1.547642	0.85025345	0.22456909
486	1.94	1.53963	0.033570229	-0.097077485	1.4876203	0.071148681	0.12614897	1.4175046	0.078924352	-0.12339431	1.3884853	0.16870558	0.11218398	1.4156827	0.092867345	-0.03713357	1.4414401	0.16699755	0.037309416	1.3412125	0.057121183	-0.080749007	1.3485098	0.16820904	0.037313003	1.5051287	0.44227981	-0.13355389	1.6098912	0.4820408	0.15973205	1.4731279	0.44838786	-0.013805742	1.621832	0.46546885	0.028168955	1.4932556	0.83640766	-0.19832361	1.4714594	0.82416771	0.14566768	1.5613275	0.88760045	-0.15026496	1.5509095	0.88988687	0.093980138	1.3646968	0.95091453	-0.031987517	1.4970456	1.36704	-0.21764788	1.4732822	1.3563894	0.14223377	1.4033905	1.3954109	-0.045918141	1.4678871	1.0425861	-0.27809991	1.3987964	1.0435134	0.20289795	1.6823065	0.9072779	-0.28122106	1.5452853	0.84942377	0.2288998
487	1.944	1.5396706	0.033556108	-0.097136427	1.5043227	0.070005413	0.127013	1.4177336	0.079499821	-0.12336853	1.402338	0.16459816	0.11296661	1.4167845	0.093501624	-0.037307044	1.4556627	0.16405497	0.037815062	1.3414485	0.058025485	-0.080616638	1.3623936	0.1626452	0.038238572	1.5062354	0.44258163	-0.13380186	1.6169826	0.48337426	0.15918165	1.4750048	0.44875352	-0.013821803	1.6280816	0.46723815	0.02794414	1.4966335	0.83666335	-0.19822523	1.4767965	0.82507321	0.14595041	1.5646932	0.88781116	-0.15064019	1.5558443	0.89049891	0.093665995	1.369533	0.95135257	-0.030998775	1.5014004	1.367624	-0.21753256	1.4777325	1.356694	0.1423623	1.4078192	1.3958175	-0.045817308	1.4753788	1.0426855	-0.27865155	1.400639	1.0448313	0.20308771	1.6931365	0.91215785	-0.27943304	1.5430314	0.8487449	0.23317014
488	1.948	1.539709	0.033542893	-0.097189817	1.521087	0.068893185	0.12789156	1.4179784	0.080067559	-0.12334823	1.4163065	0.16043601	0.11376103	1.4180169	0.094125237	-0.03750774	1.4699078	0.16098086	0.038325179	1.3416913	0.058927404	-0.080486354	1.3764173	0.15703128	0.039163827	1.5074123	0.44286879	-0.13402155	1.6239202	0.48461334	0.15858069	1.4769032	0.44908159	-0.013827158	1.6340764	0.46884007	0.027802782	1.500006	0.83691116	-0.19809977	1.482014	0.82585543	0.14624215	1.5683585	0.88799389	-0.1509697	1.5607678	0.89100489	0.093370807	1.3743931	0.95174207	-0.029989982	1.5057584	1.3681643	-0.21742631	1.4821937	1.3569515	0.14250814	1.4122463	1.3961729	-0.045682039	1.4828662	1.0427707	-0.27916603	1.4024439	1.0461439	0.20331597	1.7037031	0.91707873	-0.27765649	1.5409472	0.84821432	0.2373709
489	1.952	1.5397444	0.033529692	-0.097238178	1.5378481	0.067797074	0.12878839	1.418236	0.080625304	-0.1233422	1.4304071	0.15623433	0.11457351	1.4189822	0.094730725	-0.037651257	1.4841335	0.15788898	0.038681065	1.3419433	0.059826586	-0.080370785	1.390538	0.15135041	0.040129748	1.5086627	0.44313951	-0.13420987	1.6307031	0.48574748	0.15793579	1.4788306	0.4493808	-0.013826912	1.639868	0.47027742	0.027705384	1.5033947	0.8371512	-0.1978738	1.48714	0.82652892	0.14652214	1.5724058	0.88816809	-0.15123968	1.5656921	0.8914054	0.093092558	1.3792592	0.95208374	-0.02897809	1.5101362	1.368674	-0.21734042	1.4866603	1.3571662	0.14266838	1.4166662	1.3964873	-0.045519355	1.4903391	1.042848	-0.27963316	1.4042169	1.0474443	0.20357243	1.7140304	0.92203038	-0.2758932	1.5389819	0.84780348	0.24149548
490	1.956	1.5397784	0.033517534	-0.097284805	1.5546042	0.066735754	0.12969107	1.4185008	0.081176363	-0.12335374	1.4446628	0.15200784	0.11541128	1.4196442	0.095318298	-0.037733311	1.4979953	0.15489865	0.038813948	1.3422025	0.060722129	-0.080273911	1.4048631	0.14553832	0.041189567	1.5099915	0.44339393	-0.1343674	1.6373465	0.48676065	0.15725114	1.4807847	0.44966496	-0.0138253	1.6455157	0.47156386	0.027585344	1.5068143	0.83733612	-0.19747947	1.4922326	0.82711123	0.14678362	1.5765897	0.88830557	-0.15148852	1.570639	0.89170314	0.092832106	1.3841124	0.95237866	-0.027980476	1.5145295	1.3691593	-0.21726889	1.4911183	1.3573507	0.14284107	1.4210783	1.3967651	-0.045341119	1.4977986	1.0429182	-0.28005004	1.4059677	1.0487358	0.20384152	1.7241548	0.92699971	-0.27413957	1.5369707	0.84747708	0.2455454
491	1.96	1.5398138	0.033507732	-0.097332801	1.5713919	0.065746922	0.13058602	1.418767	0.081722253	-0.12337694	1.4590811	0.14777196	0.11627211	1.4201299	0.095893801	-0.037782534	1.5113383	0.15204917	0.038806741	1.3424619	0.061614015	-0.080190137	1.4195173	0.13958022	0.042321757	1.5113966	0.44363493	-0.13449803	1.6438564	0.48764247	0.15652852	1.4827795	0.44994407	-0.013829385	1.6510449	0.47269967	0.02738121	1.5102551	0.83739057	-0.19699092	1.4973935	0.82759997	0.14704881	1.5806667	0.8883722	-0.15175615	1.5756108	0.89190264	0.092591192	1.3889324	0.95262839	-0.027015483	1.5189017	1.3696074	-0.21718812	1.4955586	1.3575149	0.14302885	1.4254853	1.397003	-0.045155607	1.5052645	1.0429724	-0.28043168	1.4076478	1.0500247	0.20411068	1.7340529	0.9319845	-0.27239779	1.5348065	0.84723427	0.24951946
